<svg width="13" height="21" viewBox="0 0 13 21" fill="none" xmlns="http://www.w3.org/2000/svg">
<path d="M3.48394 20.7258H7.78955V12.104H11.669L12.0951 7.81965H7.78955V5.65636C7.78955 5.06189 8.27145 4.57997 8.86594 4.57997H12.0951V0.274414H8.86594C5.89349 0.274414 3.48394 2.684 3.48394 5.65636V7.81965H1.33116L0.905029 12.104H3.48394V20.7258Z" fill="#3C5B9A"/>
<mask id="mask0_0_189" style="mask-type:luminance" maskUnits="userSpaceOnUse" x="0" y="0" width="13" height="21">
<path d="M3.48394 20.7258H7.78955V12.104H11.669L12.0951 7.81965H7.78955V5.65636C7.78955 5.06189 8.27145 4.57997 8.86594 4.57997H12.0951V0.274414H8.86594C5.89349 0.274414 3.48394 2.684 3.48394 5.65636V7.81965H1.33116L0.905029 12.104H3.48394V20.7258Z" fill="white"/>
</mask>
<g mask="url(#mask0_0_189)">
</g>
</svg>
