<svg width="16" height="17" viewBox="0 0 16 17" fill="none" xmlns="http://www.w3.org/2000/svg">
<path fill-rule="evenodd" clip-rule="evenodd" d="M14.7097 1.99494C13.871 1.12398 12.6774 0.672363 11.3226 0.672363H4.67742C1.87097 0.672363 0 2.54333 0 5.34978V11.9627C0 13.3498 0.451613 14.5433 1.35484 15.4143C2.22581 16.253 3.3871 16.6724 4.70968 16.6724H11.2903C12.6774 16.6724 13.8387 16.2208 14.6774 15.4143C15.5484 14.5756 16 13.382 16 11.9949V5.34978C16 3.99494 15.5484 2.83365 14.7097 1.99494ZM12.2903 5.34978C12.807 5.34978 13.2258 4.93095 13.2258 4.4143C13.2258 3.89765 12.807 3.47881 12.2903 3.47881C11.7737 3.47881 11.3548 3.89765 11.3548 4.4143C11.3548 4.93095 11.7737 5.34978 12.2903 5.34978ZM8 4.51107C5.74194 4.51107 3.87097 6.34978 3.87097 8.64011C3.87097 10.9304 5.70968 12.7691 8 12.7691C10.2903 12.7691 12.129 10.8982 12.129 8.64011C12.129 6.38204 10.2581 4.51107 8 4.51107ZM8 11.2853C6.54839 11.2853 5.35484 10.0917 5.35484 8.64011C5.35484 7.18849 6.54839 5.99494 8 5.99494C9.45161 5.99494 10.6452 7.18849 10.6452 8.64011C10.6452 10.0917 9.45161 11.2853 8 11.2853ZM13.6452 14.3498C14.2258 13.8014 14.5806 12.9949 14.5806 11.9949V5.34978C14.5806 4.4143 14.2581 3.60785 13.7097 3.0272C13.129 2.44656 12.3226 2.15623 11.3548 2.15623H4.70968C3.74194 2.15623 2.90323 2.44656 2.35484 2.99494C1.77419 3.57559 1.48387 4.38204 1.48387 5.34978V11.9627C1.48387 12.9627 1.77419 13.7691 2.35484 14.3498C2.93548 14.8982 3.74194 15.1885 4.70968 15.1885H11.2903C12.2581 15.1885 13.0645 14.8982 13.6452 14.3498Z" fill="white"/>
<mask id="mask0_1_174" style="mask-type:luminance" maskUnits="userSpaceOnUse" x="-1" y="0" width="18" height="18">
<path fill-rule="evenodd" clip-rule="evenodd" d="M14.7097 1.99494C13.871 1.12398 12.6774 0.672363 11.3226 0.672363H4.67742C1.87097 0.672363 0 2.54333 0 5.34978V11.9627C0 13.3498 0.451613 14.5433 1.35484 15.4143C2.22581 16.253 3.3871 16.6724 4.70968 16.6724H11.2903C12.6774 16.6724 13.8387 16.2208 14.6774 15.4143C15.5484 14.5756 16 13.382 16 11.9949V5.34978C16 3.99494 15.5484 2.83365 14.7097 1.99494ZM12.2903 5.34978C12.807 5.34978 13.2258 4.93095 13.2258 4.4143C13.2258 3.89765 12.807 3.47881 12.2903 3.47881C11.7737 3.47881 11.3548 3.89765 11.3548 4.4143C11.3548 4.93095 11.7737 5.34978 12.2903 5.34978ZM8 4.51107C5.74194 4.51107 3.87097 6.34978 3.87097 8.64011C3.87097 10.9304 5.70968 12.7691 8 12.7691C10.2903 12.7691 12.129 10.8982 12.129 8.64011C12.129 6.38204 10.2581 4.51107 8 4.51107ZM8 11.2853C6.54839 11.2853 5.35484 10.0917 5.35484 8.64011C5.35484 7.18849 6.54839 5.99494 8 5.99494C9.45161 5.99494 10.6452 7.18849 10.6452 8.64011C10.6452 10.0917 9.45161 11.2853 8 11.2853ZM13.6452 14.3498C14.2258 13.8014 14.5806 12.9949 14.5806 11.9949V5.34978C14.5806 4.4143 14.2581 3.60785 13.7097 3.0272C13.129 2.44656 12.3226 2.15623 11.3548 2.15623H4.70968C3.74194 2.15623 2.90323 2.44656 2.35484 2.99494C1.77419 3.57559 1.48387 4.38204 1.48387 5.34978V11.9627C1.48387 12.9627 1.77419 13.7691 2.35484 14.3498C2.93548 14.8982 3.74194 15.1885 4.70968 15.1885H11.2903C12.2581 15.1885 13.0645 14.8982 13.6452 14.3498Z" fill="white"/>
<path d="M14.7097 1.99494L14.3495 2.34183L14.3561 2.3485L14.7097 1.99494ZM1.35484 15.4143L1.00777 15.7742L1.00802 15.7745L1.35484 15.4143ZM14.6774 15.4143L15.024 15.7747L15.0242 15.7745L14.6774 15.4143ZM13.6452 14.3498L13.9885 14.7133L13.9885 14.7133L13.6452 14.3498ZM13.7097 3.0272L14.0732 2.68389L14.0683 2.6787L14.0632 2.67365L13.7097 3.0272ZM2.35484 14.3498L2.00129 14.7033L2.00634 14.7084L2.01153 14.7133L2.35484 14.3498ZM11.3226 1.17236C12.5661 1.17236 13.6208 1.58503 14.3495 2.34176L15.0698 1.64812C14.1211 0.662921 12.7888 0.172363 11.3226 0.172363V1.17236ZM4.67742 1.17236H11.3226V0.172363H4.67742V1.17236ZM0.5 5.34978C0.5 4.06018 0.927685 3.02437 1.63984 2.31221C2.352 1.60005 3.38782 1.17236 4.67742 1.17236V0.172363C3.16057 0.172363 1.85767 0.680162 0.932737 1.6051C0.00779889 2.53004 -0.5 3.83293 -0.5 5.34978H0.5ZM0.5 11.9627V5.34978H-0.5V11.9627H0.5ZM1.70191 15.0544C0.91193 14.2926 0.5 13.2372 0.5 11.9627H-0.5C-0.5 13.4624 -0.00870405 14.794 1.00777 15.7742L1.70191 15.0544ZM4.70968 16.1724C3.4959 16.1724 2.46564 15.7898 1.70166 15.0541L1.00802 15.7745C1.98597 16.7162 3.27829 17.1724 4.70968 17.1724V16.1724ZM11.2903 16.1724H4.70968V17.1724H11.2903V16.1724ZM14.3309 15.0539C13.597 15.7595 12.5655 16.1724 11.2903 16.1724V17.1724C12.7894 17.1724 14.0804 16.682 15.024 15.7747L14.3309 15.0539ZM15.5 11.9949C15.5 13.2725 15.0862 14.3265 14.3306 15.0541L15.0242 15.7745C16.0106 14.8247 16.5 13.4916 16.5 11.9949H15.5ZM15.5 5.34978V11.9949H16.5V5.34978H15.5ZM14.3561 2.3485C15.0889 3.08128 15.5 4.1093 15.5 5.34978H16.5C16.5 3.88059 16.0079 2.58603 15.0632 1.64139L14.3561 2.3485ZM12.7258 4.4143C12.7258 4.65481 12.5308 4.84978 12.2903 4.84978V5.84978C13.0831 5.84978 13.7258 5.20709 13.7258 4.4143H12.7258ZM12.2903 3.97881C12.5308 3.97881 12.7258 4.17379 12.7258 4.4143H13.7258C13.7258 3.6215 13.0831 2.97881 12.2903 2.97881V3.97881ZM11.8548 4.4143C11.8548 4.17379 12.0498 3.97881 12.2903 3.97881V2.97881C11.4975 2.97881 10.8548 3.6215 10.8548 4.4143H11.8548ZM12.2903 4.84978C12.0498 4.84978 11.8548 4.65481 11.8548 4.4143H10.8548C10.8548 5.20709 11.4975 5.84978 12.2903 5.84978V4.84978ZM4.37097 8.64011C4.37097 6.62846 6.01553 5.01107 8 5.01107V4.01107C5.46834 4.01107 3.37097 6.0711 3.37097 8.64011H4.37097ZM8 12.2691C5.98582 12.2691 4.37097 10.6543 4.37097 8.64011H3.37097C3.37097 11.2066 5.43353 13.2691 8 13.2691V12.2691ZM11.629 8.64011C11.629 10.6246 10.0116 12.2691 8 12.2691V13.2691C10.569 13.2691 12.629 11.1718 12.629 8.64011H11.629ZM8 5.01107C9.98192 5.01107 11.629 6.65818 11.629 8.64011H12.629C12.629 6.1059 10.5342 4.01107 8 4.01107V5.01107ZM4.85484 8.64011C4.85484 10.3679 6.27225 11.7853 8 11.7853V10.7853C6.82453 10.7853 5.85484 9.81558 5.85484 8.64011H4.85484ZM8 5.49494C6.27225 5.49494 4.85484 6.91235 4.85484 8.64011H5.85484C5.85484 7.46464 6.82453 6.49494 8 6.49494V5.49494ZM11.1452 8.64011C11.1452 6.91235 9.72776 5.49494 8 5.49494V6.49494C9.17547 6.49494 10.1452 7.46464 10.1452 8.64011H11.1452ZM8 11.7853C9.72776 11.7853 11.1452 10.3679 11.1452 8.64011H10.1452C10.1452 9.81558 9.17547 10.7853 8 10.7853V11.7853ZM14.0806 11.9949C14.0806 12.8718 13.7724 13.5418 13.3018 13.9863L13.9885 14.7133C14.6792 14.061 15.0806 13.1181 15.0806 11.9949H14.0806ZM14.0806 5.34978V11.9949H15.0806V5.34978H14.0806ZM13.3462 3.37051C13.8001 3.85117 14.0806 4.53174 14.0806 5.34978H15.0806C15.0806 4.29686 14.716 3.36453 14.0732 2.68389L13.3462 3.37051ZM11.3548 2.65623C12.2207 2.65623 12.889 2.9136 13.3561 3.38076L14.0632 2.67365C13.3691 1.97951 12.4244 1.65623 11.3548 1.65623V2.65623ZM4.70968 2.65623H11.3548V1.65623H4.70968V2.65623ZM2.70839 3.3485C3.13776 2.91912 3.83397 2.65623 4.70968 2.65623V1.65623C3.6499 1.65623 2.66869 1.97399 2.00129 2.64139L2.70839 3.3485ZM1.98387 5.34978C1.98387 4.48388 2.24124 3.81565 2.70839 3.3485L2.00129 2.64139C1.30715 3.33552 0.983871 4.2802 0.983871 5.34978H1.98387ZM1.98387 11.9627V5.34978H0.983871V11.9627H1.98387ZM2.70839 13.9962C2.24273 13.5306 1.98387 12.8634 1.98387 11.9627H0.983871C0.983871 13.0619 1.30565 14.0077 2.00129 14.7033L2.70839 13.9962ZM4.70968 14.6885C3.84308 14.6885 3.16835 14.4303 2.69815 13.9863L2.01153 14.7133C2.70262 15.366 3.64079 15.6885 4.70968 15.6885V14.6885ZM11.2903 14.6885H4.70968V15.6885H11.2903V14.6885ZM13.3018 13.9863C12.8317 14.4303 12.1569 14.6885 11.2903 14.6885V15.6885C12.3592 15.6885 13.2974 15.366 13.9885 14.7133L13.3018 13.9863Z" fill="white"/>
</mask>
<g mask="url(#mask0_1_174)">
</g>
</svg>
